# xmcd CD database file
#
# Track frame offsets:
#	150
#	49491
#	70361
#	93816
#	109671
#	142646
#	164863
#	192056
#	214666
#	240843
#
# Disc length: 3582 seconds
#
# Revision: 1
# Processed by: cddbd v1.5.1PL0 Copyright (c) Steve Scherf et al.
# Submitted via: CDex 1.51
#
DISCID=840dfc0a
DTITLE=B.B. King - by www.delas.it - The great B.B. King
DYEAR=1900
DGENRE=Blues
TTITLE0=B.B. King's Blues Theme
TTITLE1=Why I Sing the Blues
TTITLE2=You Know I Love You
TTITLE3=Caladonia
TTITLE4=All Over Again
TTITLE5=Everyday I Have the Blues
TTITLE6=Sweet Little Angel
TTITLE7=The Thrill Is Gone
TTITLE8=Guess Who
TTITLE9=Payin' The Cost To Be The Boss
EXTD=
EXTT0=
EXTT1=
EXTT2=
EXTT3=
EXTT4=
EXTT5=
EXTT6=
EXTT7=
EXTT8=
EXTT9=
PLAYORDER=
